<svg xmlns="http://www.w3.org/2000/svg" width="57" height="51"><g fill="none" fill-rule="evenodd" stroke-width="2"><path stroke="#139BD7" d="M12.922 18.9C16.443 12.239 23.442 7.7 31.5 7.7c11.598 0 21 9.402 21 21s-9.402 21-21 21c-8.058 0-15.056-4.539-18.578-11.2"/><circle cx="31.5" cy="28.7" r="2.8" stroke="#139BD7"/><path stroke="#A1AFBA" d="M52.812 39.306A23.704 23.704 0 0055.3 28.7a23.71 23.71 0 00-5.576-15.31m-2.055-2.155a24.169 24.169 0 00-1.584-1.344"/><path stroke="#139BD7" d="M31.5 7.7V5.6"/><rect width="7.8" height="3.6" x="27.6" y="1" stroke="#139BD7" rx="1.4"/><path stroke="#139BD7" d="M33.6 26.6l8.4-8.05M31.5 46.9v-3.5m.35-29.4v-3.5m14.7 18.2h3.5M2.1 23.45h1.4m1.4 0h14m-14.7 5.6H14m-14 5.6h1.4m1.4 0h14"/><path stroke="#A1AFBA" d="M4.2 12.25h1.4m1.4 0h1.4m1.4 0h1.4m-4.9 33.6h5.6"/></g></svg>
