<svg xmlns="http://www.w3.org/2000/svg" width="37" height="55"><g fill="none" fill-rule="evenodd" stroke-width="2" transform="translate(1 1)"><circle cx="32.2" cy="8.4" r="2.8" stroke="#A1AFBA"/><path stroke="#A1AFBA" d="M29.4 8.4h-6.65v6.3"/><circle cx="2.8" cy="8.4" r="2.8" stroke="#A1AFBA" transform="matrix(-1 0 0 1 5.6 0)"/><path stroke="#A1AFBA" d="M5.6 8.4h6.65v6.3"/><path stroke="#139BD7" stroke-linejoin="round" d="M1.05 17.12a27.856 27.856 0 0015.853-4.952l.387-.268h0l.387.268A27.856 27.856 0 0033.53 17.12h0v9.103c0 11.128-6.287 21.3-16.24 26.277h0A29.379 29.379 0 011.05 26.223V17.12h0z"/><path stroke="#139BD7" stroke-linejoin="round" d="M13.076 19.38a19.3 19.3 0 01-7.386 1.469h-.58v3.231m12.182 23.27l.502-.256a21.549 21.549 0 009.033-8.82"/><path stroke="#A1AFBA" d="M17.15 11.9V5.6"/><circle cx="17.15" cy="2.8" r="2.8" stroke="#A1AFBA"/></g></svg>