<svg xmlns="http://www.w3.org/2000/svg" width="51" height="41"><g fill="none" fill-rule="evenodd" stroke-width="2"><path stroke="#139BD7" d="M14.466 31.1H9.75C4.918 31.1 1 27.136 1 22.247c0-3.63 2.16-6.75 5.25-8.117v-.146C6.25 6.814 11.996 1 19.083 1c3.044 0 5.84 1.072 8.04 2.864a11.247 11.247 0 013.335-.503c6.185 0 11.217 4.994 11.372 11.214 4.514 0 8.17 3.699 8.17 8.262 0 4.564-3.656 8.263-8.167 8.263h-5.328"/><path stroke="#A1AFBA" d="M26.2 34.3l4.5 4.5 4.5-4.5m-4.5 4.5V22m-15 4.5l4.5-4.5 4.5 4.5M20.2 22v16.8"/></g></svg>