<svg xmlns="http://www.w3.org/2000/svg" width="46" height="50" viewBox="0 0 46 50">
    <g fill="none" fill-rule="evenodd">
        <path fill-rule="nonzero" stroke="#A1AFBA" stroke-width="2" d="M37 40v9H1V1h29l7 7v12"/>
        <path fill-rule="nonzero" stroke="#A1AFBA" stroke-width="2" d="M13 20h32v20H13z"/>
        <path fill="#A1AFBA" d="M20.114 36H18.44v-9.36h1.674V36zm-.846-11.052c-.3 0-.555-.099-.765-.297-.21-.198-.315-.465-.315-.801s.105-.603.315-.801c.21-.198.465-.297.765-.297s.555.099.765.297c.21.198.315.465.315.801s-.105.603-.315.801c-.21.198-.465.297-.765.297zm7.794 11.268c-.756 0-1.419-.12-1.989-.36a4.001 4.001 0 0 1-1.44-1.008 4.184 4.184 0 0 1-.873-1.539 6.383 6.383 0 0 1-.288-1.971c0-.72.105-1.38.315-1.98.21-.6.507-1.119.891-1.557.384-.438.855-.78 1.413-1.026a4.57 4.57 0 0 1 1.863-.369c.42 0 .84.036 1.26.108.42.072.822.186 1.206.342l-.378 1.422a4.027 4.027 0 0 0-.873-.288 4.932 4.932 0 0 0-1.053-.108c-.936 0-1.653.294-2.151.882-.498.588-.747 1.446-.747 2.574 0 .504.057.966.171 1.386.114.42.294.78.54 1.08.246.3.561.531.945.693.384.162.852.243 1.404.243.444 0 .846-.042 1.206-.126a4.41 4.41 0 0 0 .846-.27l.234 1.404c-.096.06-.234.117-.414.171a5.8 5.8 0 0 1-.612.144c-.228.042-.471.078-.729.108a6.47 6.47 0 0 1-.747.045zm12.564-4.896c0 .744-.108 1.416-.324 2.016a4.61 4.61 0 0 1-.909 1.548c-.39.432-.855.765-1.395.999a4.389 4.389 0 0 1-1.764.351 4.389 4.389 0 0 1-1.764-.351 3.999 3.999 0 0 1-1.395-.999 4.61 4.61 0 0 1-.909-1.548c-.216-.6-.324-1.272-.324-2.016 0-.732.108-1.401.324-2.007a4.594 4.594 0 0 1 .909-1.557c.39-.432.855-.765 1.395-.999a4.389 4.389 0 0 1 1.764-.351c.636 0 1.224.117 1.764.351.54.234 1.005.567 1.395.999.39.432.693.951.909 1.557.216.606.324 1.275.324 2.007zm-1.746 0c0-1.056-.237-1.893-.711-2.511-.474-.618-1.119-.927-1.935-.927-.816 0-1.461.309-1.935.927-.474.618-.711 1.455-.711 2.511s.237 1.893.711 2.511c.474.618 1.119.927 1.935.927.816 0 1.461-.309 1.935-.927.474-.618.711-1.455.711-2.511z"/>
    </g>
</svg>
