<svg width="134" height="32" viewBox="0 0 134 32" fill="none" xmlns="http://www.w3.org/2000/svg">
<g clip-path="url(#clip0_1851_11700)">
<path d="M35.2152 11.3418H48.7832V13.8033H43.4482V27.6409H40.5146V13.8033H35.2034V11.3418H35.2152ZM48.2035 15.8393H50.7113V18.1168H50.7586C50.8414 17.7947 50.9952 17.4841 51.22 17.1851C51.4447 16.886 51.7168 16.5984 52.0362 16.3569C52.3556 16.1038 52.7104 15.9083 53.1008 15.7473C53.4911 15.5977 53.8933 15.5172 54.2955 15.5172C54.6031 15.5172 54.8278 15.5287 54.9461 15.5402C55.0644 15.5517 55.1827 15.5747 55.3128 15.5862V18.0938C55.1236 18.0593 54.9343 18.0363 54.7332 18.0133C54.5321 17.9903 54.3428 17.9787 54.1536 17.9787C53.7041 17.9787 53.2782 18.0708 52.876 18.2433C52.4738 18.4158 52.1308 18.6804 51.8351 19.014C51.5394 19.359 51.3028 19.7731 51.1253 20.2793C50.9479 20.7854 50.8651 21.3605 50.8651 22.0161V27.6294H48.1917V15.8393H48.2035ZM67.6033 27.6409H64.9772V25.996H64.9299C64.5987 26.5941 64.1137 27.0657 63.4631 27.4223C62.8125 27.7789 62.15 27.9629 61.4758 27.9629C59.8789 27.9629 58.7196 27.5833 58.0099 26.8127C57.3001 26.042 56.9452 24.8803 56.9452 23.3274V15.8393H59.6186V23.0744C59.6186 24.1096 59.8197 24.8457 60.2337 25.2713C60.6359 25.6969 61.2156 25.9155 61.949 25.9155C62.5168 25.9155 62.9781 25.835 63.3566 25.6624C63.7351 25.4899 64.0427 25.2713 64.2675 24.9838C64.504 24.7077 64.6696 24.3626 64.7761 23.9716C64.8826 23.5805 64.9299 23.1549 64.9299 22.6948V15.8508H67.6033V27.6409ZM72.1575 23.8565C72.2403 24.6157 72.536 25.1448 73.0446 25.4554C73.5651 25.7544 74.1802 25.9155 74.9018 25.9155C75.1502 25.9155 75.4341 25.8925 75.7535 25.858C76.0729 25.8235 76.3804 25.7429 76.6525 25.6394C76.9364 25.5359 77.1612 25.3749 77.3504 25.1678C77.5279 24.9608 77.6107 24.6962 77.5988 24.3626C77.587 24.0291 77.4569 23.753 77.2203 23.546C76.9837 23.3274 76.688 23.1664 76.3213 23.0284C75.9546 22.9018 75.5406 22.7868 75.0674 22.6948C74.5943 22.6028 74.1211 22.4992 73.6361 22.3957C73.1393 22.2922 72.6543 22.1542 72.1929 22.0046C71.7316 21.8551 71.3176 21.648 70.9509 21.3835C70.5842 21.1304 70.2885 20.7969 70.0755 20.3943C69.8508 19.9917 69.7443 19.4971 69.7443 18.8989C69.7443 18.2548 69.9099 17.7257 70.2293 17.2886C70.5487 16.8515 70.9627 16.5064 71.4477 16.2419C71.9445 15.9773 72.4887 15.7933 73.092 15.6782C73.6952 15.5747 74.2749 15.5172 74.819 15.5172C75.4459 15.5172 76.0492 15.5862 76.617 15.7128C77.1848 15.8393 77.7053 16.0463 78.1666 16.3454C78.628 16.633 79.0065 17.0125 79.3141 17.4726C79.6216 17.9327 79.8109 18.4964 79.8937 19.152H77.102C76.9719 18.5309 76.688 18.1053 76.2267 17.8982C75.7653 17.6797 75.233 17.5762 74.6416 17.5762C74.4523 17.5762 74.2276 17.5877 73.9673 17.6222C73.7071 17.6567 73.4705 17.7142 73.2339 17.7947C73.0092 17.8752 72.8199 18.0018 72.6543 18.1628C72.5005 18.3238 72.4177 18.5309 72.4177 18.7954C72.4177 19.1175 72.536 19.3706 72.7607 19.5661C72.9855 19.7616 73.2812 19.9227 73.6479 20.0607C74.0146 20.1872 74.4286 20.3023 74.9018 20.3943C75.375 20.4863 75.86 20.5898 76.3568 20.6933C76.8418 20.7969 77.3149 20.9349 77.7881 21.0844C78.2613 21.234 78.6753 21.441 79.042 21.7056C79.4087 21.9701 79.7044 22.2922 79.9292 22.6833C80.1539 23.0744 80.2722 23.569 80.2722 24.1441C80.2722 24.8457 80.1066 25.4324 79.7754 25.927C79.4442 26.4101 79.0183 26.8127 78.4979 27.1117C77.9774 27.4108 77.3859 27.6409 76.7472 27.7789C76.1084 27.9169 75.4696 27.9859 74.8427 27.9859C74.0738 27.9859 73.364 27.9054 72.7134 27.7329C72.0628 27.5603 71.495 27.3073 71.0219 26.9737C70.5487 26.6286 70.1702 26.203 69.8981 25.6969C69.626 25.1908 69.4841 24.5812 69.4604 23.8795H72.1575V23.8565ZM80.982 15.8393H83.0047V12.2965H85.6781V15.8393H88.0913V17.7832H85.6781V24.0866C85.6781 24.3626 85.6899 24.5927 85.7136 24.7997C85.7373 24.9953 85.7964 25.1678 85.8792 25.3059C85.962 25.4439 86.0921 25.5474 86.2696 25.6164C86.447 25.6854 86.6718 25.7199 86.9793 25.7199C87.1686 25.7199 87.3578 25.7199 87.5471 25.7084C87.7364 25.6969 87.9256 25.6739 88.1149 25.6279V27.6409C87.8192 27.6754 87.5235 27.6984 87.2514 27.7329C86.9675 27.7674 86.6836 27.7789 86.3879 27.7789C85.6781 27.7789 85.1103 27.7099 84.6845 27.5833C84.2586 27.4568 83.9156 27.2613 83.679 27.0082C83.4306 26.7552 83.2768 26.4446 83.1822 26.065C83.0994 25.6854 83.0402 25.2483 83.0284 24.7652V17.8062H81.0056V15.8393H80.982ZM89.9839 15.8393H92.5153V17.4381H92.5627C92.9412 16.748 93.4617 16.2649 94.1359 15.9658C94.8102 15.6667 95.5317 15.5172 96.3243 15.5172C97.2825 15.5172 98.1105 15.6782 98.8203 16.0118C99.53 16.3339 100.121 16.7825 100.595 17.3576C101.068 17.9327 101.411 18.5999 101.647 19.359C101.884 20.1182 102.002 20.9349 102.002 21.7976C102.002 22.5913 101.896 23.3619 101.683 24.0981C101.47 24.8457 101.151 25.5014 100.725 26.0765C100.299 26.6516 99.7547 27.1002 99.0923 27.4453C98.4299 27.7904 97.661 27.9629 96.762 27.9629C96.3716 27.9629 95.9813 27.9284 95.5909 27.8594C95.2005 27.7904 94.822 27.6754 94.4671 27.5258C94.1123 27.3763 93.7692 27.1808 93.4735 26.9392C93.1659 26.6977 92.9175 26.4216 92.7046 26.111H92.6573V32.0003H89.9839V15.8393ZM99.3289 21.7516C99.3289 21.2225 99.2579 20.7048 99.116 20.1987C98.974 19.6926 98.7611 19.2555 98.4772 18.8644C98.1933 18.4734 97.8384 18.1628 97.4244 17.9327C96.9986 17.7027 96.5136 17.5762 95.9694 17.5762C94.8457 17.5762 93.994 17.9557 93.4262 18.7149C92.8584 19.4741 92.5745 20.4863 92.5745 21.7516C92.5745 22.3497 92.6455 22.9018 92.7992 23.4079C92.953 23.914 93.1659 24.3511 93.4735 24.7192C93.7692 25.0873 94.1241 25.3749 94.5381 25.5819C94.9521 25.8005 95.4371 25.904 95.9813 25.904C96.5964 25.904 97.105 25.7775 97.5309 25.5359C97.9567 25.2943 98.2998 24.9723 98.5718 24.5927C98.8439 24.2016 99.045 23.7645 99.1633 23.2699C99.2697 22.7753 99.3289 22.2692 99.3289 21.7516ZM104.049 11.3418H106.722V13.8033H104.049V11.3418ZM104.049 15.8393H106.722V27.6409H104.049V15.8393ZM109.112 11.3418H111.785V27.6409H109.112V11.3418ZM119.982 27.9629C119.013 27.9629 118.149 27.8019 117.392 27.4913C116.635 27.1808 115.996 26.7437 115.464 26.203C114.943 25.6509 114.541 24.9953 114.269 24.2361C113.997 23.4769 113.855 22.6373 113.855 21.7286C113.855 20.8314 113.997 20.0032 114.269 19.244C114.541 18.4849 114.943 17.8292 115.464 17.2771C115.984 16.725 116.635 16.2994 117.392 15.9888C118.149 15.6782 119.013 15.5172 119.982 15.5172C120.952 15.5172 121.816 15.6782 122.573 15.9888C123.33 16.2994 123.969 16.7365 124.501 17.2771C125.022 17.8292 125.424 18.4849 125.696 19.244C125.968 20.0032 126.11 20.8314 126.11 21.7286C126.11 22.6373 125.968 23.4769 125.696 24.2361C125.424 24.9953 125.022 25.6509 124.501 26.203C123.981 26.7552 123.33 27.1808 122.573 27.4913C121.816 27.8019 120.952 27.9629 119.982 27.9629ZM119.982 25.904C120.574 25.904 121.094 25.7775 121.532 25.5359C121.97 25.2943 122.325 24.9723 122.609 24.5812C122.892 24.1901 123.094 23.7415 123.236 23.2469C123.366 22.7523 123.437 22.2462 123.437 21.7286C123.437 21.2225 123.366 20.7278 123.236 20.2217C123.105 19.7156 122.892 19.2785 122.609 18.8874C122.325 18.4964 121.97 18.1858 121.532 17.9442C121.094 17.7027 120.574 17.5762 119.982 17.5762C119.391 17.5762 118.871 17.7027 118.433 17.9442C117.995 18.1858 117.64 18.5079 117.356 18.8874C117.073 19.2785 116.871 19.7156 116.729 20.2217C116.599 20.7278 116.528 21.2225 116.528 21.7286C116.528 22.2462 116.599 22.7523 116.729 23.2469C116.86 23.7415 117.073 24.1901 117.356 24.5812C117.64 24.9723 117.995 25.2943 118.433 25.5359C118.871 25.789 119.391 25.904 119.982 25.904ZM126.891 15.8393H128.913V12.2965H131.587V15.8393H134V17.7832H131.587V24.0866C131.587 24.3626 131.599 24.5927 131.622 24.7997C131.646 24.9953 131.705 25.1678 131.788 25.3059C131.871 25.4439 132.001 25.5474 132.178 25.6164C132.356 25.6854 132.58 25.7199 132.888 25.7199C133.077 25.7199 133.267 25.7199 133.456 25.7084C133.645 25.6969 133.834 25.6739 134.024 25.6279V27.6409C133.728 27.6754 133.432 27.6984 133.16 27.7329C132.876 27.7674 132.592 27.7789 132.297 27.7789C131.587 27.7789 131.019 27.7099 130.593 27.5833C130.167 27.4568 129.824 27.2613 129.588 27.0082C129.339 26.7552 129.186 26.4446 129.091 26.065C129.008 25.6854 128.949 25.2483 128.937 24.7652V17.8062H126.914V15.8393H126.891Z" fill="#191919"/>
<path d="M32.0923 11.3415H19.8374L16.0521 0L12.2549 11.3415L0 11.33L9.92461 18.3465L6.12747 29.6765L16.0521 22.6715L25.9649 29.6765L22.1796 18.3465L32.0923 11.3415Z" fill="#00B67A"/>
<path d="M23.0313 20.9117L22.1796 18.3467L16.0521 22.6716L23.0313 20.9117Z" fill="#005128"/>
</g>
<defs>
<clipPath id="clip0_1851_11700">
<rect width="134" height="32" fill="white"/>
</clipPath>
</defs>
</svg>
